<svg width="287" height="275" viewBox="0 0 287 275" fill="none" xmlns="http://www.w3.org/2000/svg">
<path d="M197.629 274.963C228.187 262.466 253.466 239.761 269.16 210.715C284.854 181.669 289.99 148.081 283.695 115.672C277.4 83.2633 260.063 54.04 234.637 32.9814C209.211 11.9227 177.27 0.331668 144.256 0.183177C111.242 0.0346852 79.1975 11.3379 53.5831 32.167C27.9687 52.9961 10.369 82.0622 3.7826 114.413C-2.80375 146.764 2.03082 180.397 17.4626 209.583C32.8943 238.769 57.9684 261.701 88.4125 274.472L93.0048 263.525C65.0933 251.816 42.1052 230.792 27.9573 204.034C13.8093 177.276 9.37694 146.441 15.4154 116.781C21.4538 87.1219 37.5894 60.4738 61.0729 41.3775C84.5563 22.2812 113.935 11.9183 144.202 12.0545C174.47 12.1906 203.754 22.8174 227.064 42.1241C250.375 61.4309 266.27 88.223 272.042 117.936C277.813 147.648 273.104 178.442 258.716 205.072C244.327 231.701 221.151 252.518 193.135 263.975L197.629 274.963Z" fill="url(#paint0_linear_250_26)"/>
<path d="M188.284 252.592C213.666 242.257 234.679 223.441 247.743 199.349C260.808 175.258 265.114 147.382 259.93 120.471C254.745 93.5603 240.39 69.2798 219.31 51.7666C198.23 34.2534 171.73 24.5912 144.324 24.4262C116.919 24.2613 90.3045 33.6038 69.0153 50.862C47.7262 68.1202 33.0797 92.2262 27.5714 119.073C22.0632 145.919 26.0339 173.845 38.8072 198.092C51.5805 222.339 72.3659 241.407 97.6219 252.047L143.611 142.881L188.284 252.592Z" fill="url(#paint1_linear_250_26)"/>
<path d="M193.209 264.376C221.271 252.804 244.452 231.861 258.802 205.113C273.153 178.366 277.785 147.471 271.91 117.691C266.035 87.9113 250.016 61.0898 226.583 41.7968C203.149 22.5038 173.751 11.9329 143.398 11.8853C113.044 11.8376 83.6127 22.3162 60.1187 41.5356C36.6248 60.755 20.5217 87.5259 14.5532 117.287C8.5848 147.048 13.1203 177.958 27.3869 204.75C41.6535 231.542 64.7686 252.559 92.7935 264.219L97.841 252.087C72.6229 241.595 51.8228 222.683 38.985 198.574C26.1473 174.466 22.066 146.651 27.4367 119.871C32.8074 93.0903 47.2977 69.0005 68.4387 51.706C89.5797 34.4115 116.063 24.9824 143.377 25.0252C170.691 25.0681 197.145 34.5803 218.231 51.9411C239.318 69.3018 253.732 93.437 259.019 120.234C264.306 147.032 260.137 174.833 247.224 198.901C234.31 222.97 213.451 241.816 188.2 252.229L193.209 264.376Z" fill="url(#paint2_linear_250_26)"/>
<path d="M165 143.5C165 155.374 155.374 165 143.5 165C131.626 165 122 155.374 122 143.5C122 131.626 131.626 122 143.5 122C155.374 122 165 131.626 165 143.5Z" fill="white"/>
<defs>
<linearGradient id="paint0_linear_250_26" x1="143.614" y1="0.181732" x2="143.614" y2="302.813" gradientUnits="userSpaceOnUse">
<stop stop-color="#19FF91"/>
<stop offset="1" stop-color="#19FF91" stop-opacity="0.28"/>
</linearGradient>
<linearGradient id="paint1_linear_250_26" x1="143.614" y1="0.181732" x2="143.614" y2="274.963" gradientUnits="userSpaceOnUse">
<stop stop-color="#199FFF"/>
<stop offset="1" stop-color="#199FFF" stop-opacity="0.52"/>
</linearGradient>
<linearGradient id="paint2_linear_250_26" x1="143.397" y1="-126.004" x2="143.598" y2="274.963" gradientUnits="userSpaceOnUse">
<stop offset="0.275154" stop-color="#B90000"/>
<stop offset="1"/>
</linearGradient>
</defs>
</svg>
