<svg width="75" height="75" viewBox="0 0 75 75" fill="none" xmlns="http://www.w3.org/2000/svg">
<path d="M37.5 67.9688C20.7 67.9688 7.03125 54.3012 7.03125 37.5C7.03125 20.6988 20.7 7.03125 37.5 7.03125C54.3 7.03125 67.9688 20.6988 67.9688 37.5C67.9688 54.3012 54.3 67.9688 37.5 67.9688ZM37.5 9.375C21.9926 9.375 9.375 21.9926 9.375 37.5C9.375 53.0074 21.9926 65.625 37.5 65.625C53.0074 65.625 65.625 53.0074 65.625 37.5C65.625 21.9926 53.0074 9.375 37.5 9.375Z" fill="url(#paint0_linear_115_140)"/>
<path d="M37.5 63.2812C23.284 63.2812 11.7188 51.716 11.7188 37.5C11.7188 23.284 23.284 11.7188 37.5 11.7188C51.716 11.7188 63.2812 23.284 63.2812 37.5C63.2812 51.716 51.716 63.2812 37.5 63.2812ZM37.5 14.0625C24.5766 14.0625 14.0625 24.5766 14.0625 37.5C14.0625 50.4234 24.5766 60.9375 37.5 60.9375C50.4234 60.9375 60.9375 50.4234 60.9375 37.5C60.9375 24.5766 50.4234 14.0625 37.5 14.0625Z" fill="url(#paint1_linear_115_140)"/>
<path d="M37.5 44.5312H35.1562V41.0156C35.1562 39.0773 36.7336 37.5 38.6719 37.5H41.0156C42.9539 37.5 44.5312 35.9227 44.5312 33.9844V26.9531C44.5312 25.0148 42.9539 23.4375 41.0156 23.4375H33.9844C32.0461 23.4375 30.4688 25.0148 30.4688 26.9531V30.4688H28.125V26.9531C28.125 23.7223 30.7535 21.0938 33.9844 21.0938H41.0156C44.2465 21.0938 46.875 23.7223 46.875 26.9531V33.9844C46.875 37.2152 44.2465 39.8438 41.0156 39.8438H38.6719C38.0262 39.8438 37.5 40.3687 37.5 41.0156V44.5312Z" fill="url(#paint2_linear_115_140)"/>
<path d="M36.3281 53.9062C35.0355 53.9062 33.9844 52.8551 33.9844 51.5625C33.9844 50.2699 35.0355 49.2188 36.3281 49.2188C37.6207 49.2188 38.6719 50.2699 38.6719 51.5625C38.6719 52.8551 37.6207 53.9062 36.3281 53.9062Z" fill="url(#paint3_linear_115_140)"/>
<defs>
<linearGradient id="paint0_linear_115_140" x1="37.4999" y1="5.27964" x2="37.4999" y2="62.7557" gradientUnits="userSpaceOnUse">
<stop stop-color="#1AFF4C"/>
<stop offset="1" stop-color="#22FFCA"/>
</linearGradient>
<linearGradient id="paint1_linear_115_140" x1="37.4999" y1="10.2366" x2="37.4999" y2="58.8702" gradientUnits="userSpaceOnUse">
<stop stop-color="#1AFF4C"/>
<stop offset="1" stop-color="#22FFCA"/>
</linearGradient>
<linearGradient id="paint2_linear_115_140" x1="37.5004" y1="13.1299" x2="37.5004" y2="64.469" gradientUnits="userSpaceOnUse">
<stop stop-color="#00D1FF"/>
<stop offset="1" stop-color="#0038FF"/>
</linearGradient>
<linearGradient id="paint3_linear_115_140" x1="36.3282" y1="47.626" x2="36.3282" y2="57.8938" gradientUnits="userSpaceOnUse">
<stop stop-color="#00D1FF"/>
<stop offset="1" stop-color="#0038FF"/>
</linearGradient>
</defs>
</svg>
