<svg xmlns="http://www.w3.org/2000/svg" viewBox="0 0 396.67 396.67"><defs>
<style>

.cls-1{fill:#38ba93;}.cls-2{fill:#000000;}.cls-3,.cls-4{fill:#fff;}.cls-3{fill-rule:evenodd;}

</style>
</defs><g id="Layer_2" data-name="Layer 2"><g id="Layer_1-2" data-name="Layer 1"><path class="cls-1" d="M0,198.34C0,88.8,88.8,0,198.34,0S396.67,88.8,396.67,198.34,307.88,396.67,198.34,396.67,0,307.88,0,198.34"/><path class="cls-2" d="M12.54,198.34a185.79,185.79,0,0,1,185.8-185.8c102.61,0,185.8,83.18,185.8,185.8S301,384.14,198.34,384.14,12.54,301,12.54,198.34"/><path class="cls-3" d="M236.11,115.32,208.46,137c.18.23.36.47.53.71l28.63-20.28-1.51-2.09m-5.3,243.79c5.49-12.71,11.18-25.32,19.42-36.88a23.81,23.81,0,0,0-9.91,3c-2,1.05-4,2.06-5.86,3.25-4.9,3.09-10,2.71-15.06.77-4.05-1.55-8-3.3-12.05-4.88a28,28,0,0,0-22,.09c-2.4,1-4.75,2.19-7.14,3.3,0-3.31-.18-6.6,0-9.85a32.51,32.51,0,0,0-4.24-18c-1-1.85-1.88-3.77-2.9-5.61s-1.41-1.9-3.1-.74c-2.54,1.75-4.93,3.81-7.68,5.13-2.42,1.16-5.25,1.44-7.89,2.17a19.88,19.88,0,0,0-11.13,7.6,25.55,25.55,0,0,1-7,6.16c-2,1.28-3.33.79-3.25-1.8a66.12,66.12,0,0,1,1.2-8c.42-2.77.88-5.54,1.13-8.33a4.67,4.67,0,0,0-.79-2.61c-.74-1.19-2-1.69-3.17-.77a42.09,42.09,0,0,0-6.53,5.72c-4.35,5.19-8.6,10.5-12.52,16-5.36,7.54-10.39,15.32-15.55,23-.93,1.39-1.79,2.83-2.68,4.24l-.75-.32c.55-1.82,1-3.67,1.67-5.45.84-2.3,1.84-4.53,2.74-6.81,2.16-5.42,4.27-10.87,6.45-16.29,4.51-11.23,9-22.48,13.59-33.66,3.31-8,6.63-16,10.42-23.78,2.09-4.3,4-8.91,7.77-12.19,1.23-1.06,2.52-1.72,4.18-1.12,4.43,1.6,6.51-.32,8.89-3.83a44.63,44.63,0,0,0,3.24-5.38,16.71,16.71,0,0,0,1.5-4.61A28.86,28.86,0,0,1,155,220a50.15,50.15,0,0,0,5.13-13.43l-5.95-1.79a15.52,15.52,0,0,1,.9-2.11c1.43-2.33,3.1-4.54,4.34-7a21.81,21.81,0,0,0,1.32-4.88,8.74,8.74,0,0,1,7.13-5.94c2.47-.18,3.82-1.13,4-3.61.24-3.56.14-7.14.06-10.72-.1-3.81-.48-7.63-.46-11.44,0-1.18.82-2.41,1.41-3.54a82.84,82.84,0,0,1,10.73-16.48c2-2.24,4.14-4.3,6.16-6.5a16.93,16.93,0,0,0,1.55-2.31l.42.19v1.39l.5.12a46,46,0,0,0,1.9-5.71c.82-4.07,1.45-8.19,2-12.31.5-3.46,2.69-5.41,5.57-7,.86-.46,1.94-1.21,2.17-2.05,2.42-8.6,8-14.74,15.45-19.08,9.63-5.58,17.26-13.44,25.1-21.1,4.17-4.07,8.27-8.2,12.44-12.27.69-.67,1.68-1.36.83-2.26-.69-.73-2.1-1.61-2.8-1.35a16.65,16.65,0,0,0-4.86,2.92c-4.06,3.41-8,7-12,10.5-3.31,3-6.48,6.08-9.83,9-3.81,3.32-7.74,6.5-11.62,9.73s-7.59,6.29-11.4,9.4c-3.08,2.52-6.13,5.07-9.3,7.45-4.61,3.45-9.3,6.78-14,10.13-2.51,1.8-5.17,3.41-7.6,5.32-5.81,4.54-10.71,9.78-12.2,17.36a38,38,0,0,0-.28,12.68c.81,5.87,1.64,11.73,2.12,17.63.15,1.93-.75,4-1.22,5.93-.06.26-.39.46-.83.94-.12-1-.2-1.62-.32-2.64a7.22,7.22,0,0,0-2.33,1.06c-4.26,4.6-8.4,9.31-12.66,13.9-3.3,3.56-6.71,7-10.08,10.51-2.75,2.84-5.5,5.66-8.28,8.47a6.83,6.83,0,0,1-1.3.82l-.53-.36a39,39,0,0,1,1.41-4.15c2.42-5.27,5-10.48,7.4-15.73,1.27-2.74,2.42-5.53,3.63-8.3l-.46-.29c-1,1.2-2.07,2.37-3,3.63-4.67,6.17-9.34,12.34-13.94,18.56S112.46,205.8,108,212c-1.53,2.12-2.9,4.35-4.43,6.47a3.31,3.31,0,0,1-3.39,1.4c-1-.09-2.35,1-3.06,2-2.56,3.44-5.06,6.95-7.31,10.6-3.45,5.6-6.68,11.34-10,17-2.6,4.49-5.21,9-7.77,13.51-1.37,2.42-2.64,4.91-4,7.35a4.78,4.78,0,0,1-.84.91l-.48-.22a10.6,10.6,0,0,1,.46-2c2.84-6.4,5.56-12.87,8.62-19.17,4.38-9,8.82-17.93,13.59-26.71s9.74-17.5,15.05-26c5.72-9.13,11.77-18.07,18-26.87C127,163.77,132,157.5,137,151.35s10.52-12,15.73-18.08a8.35,8.35,0,0,0,1.66-3.36,32,32,0,0,1,7-14c4.34-5,9.64-8.7,14.95-12.5,5.85-4.19,11.54-8.6,17.22-13,4.12-3.2,8.14-6.53,12.15-9.87,2.56-2.14,5-4.43,7.54-6.61s4.88-4,7.26-6c4.44-3.85,8.77-7.81,13.24-11.61,5-4.21,9.94-8.4,15.06-12.41a12.11,12.11,0,0,1,8.42-2.58A7.91,7.91,0,0,1,264,46.09a47.08,47.08,0,0,1,3.12,9.65c2.17,10,4.14,20,6.16,30,1.49,7.39,2.87,14.81,4.47,22.17a53,53,0,0,0,2.42,6.73c-2.15,1.25-2.18,1.27-.79,3.28,1,1.4,2.06,2.69,3,4.08,3.73,5.42,2.26,10.65-2.84,14.33a20.16,20.16,0,0,1-4,2.15c-.77.32-1.07.46-.93,1.45.41,3,.59,6,.92,9.65a17.71,17.71,0,0,1-2.73-1.29c-2.26-1.65-4.46-3.39-6.67-5.1a6.25,6.25,0,0,1-1.45-1.23c-.8-1.16-1.64-1.66-3.08-1.08-.35.14-1-.6-1.58-.93.35-.42.63-1.09,1.06-1.22a1.84,1.84,0,0,0,1.57-1.55,3.31,3.31,0,0,1,1.37-1.77c2-1.28,4-2.5,6.05-3.6,1.3-.7,2.29-.07,2.8,1.23.45,1.14.8,2.31,1.23,3.59,3.3-1.44,6.17-3.18,7.6-6.6a6,6,0,0,0,.54-2c0-.51-.23-1.34-.59-1.51-3.93-1.81-7.47-4.62-12-5a47.08,47.08,0,0,0-7-.24c-5.6.33-11.23.66-16.59,2.46-3.63,1.23-7.43,2.35-10.62,4.37s-5.56,4.86-8.13,7.52c-4.18,4.34-8.2,8.82-12.32,13.23-.78.83-1.66,1.57-2.49,2.35l-.62-.45,8.6-13.89-.48-.44c-1.8,1.55-3.66,3-5.4,4.66a86.21,86.21,0,0,0-15.94,19.51,119.14,119.14,0,0,0-11.1,23.81c-1.7,5.29-3.75,10.48-5.15,15.84-2.08,8-3.72,16-5.56,24.06-.89,3.87-1.68,7.78-2.72,11.61a20,20,0,0,0,2.56,17c3.07,4.7,5.08,9.72,5.07,15.51,0,6.59,2.61,12.39,6.43,17.6,1.36,1.84,3.44,3.16,5.16,4.75a21.53,21.53,0,0,1,1.92,2c3,3.66,7,5,11.6,5,5.64,0,11.16.52,16.38,2.84a22.79,22.79,0,0,1,7.94,5.74c3.73,4.19,8.58,5.32,13.93,4.64,2.37-.3,4.7-.93,7.05-1.42a8.26,8.26,0,0,1,5.65.54A17.24,17.24,0,0,0,268,311.46c4.4-.58,8.19-4.48,9.18-9.16.06-.28.11-.56.22-1.14a15.11,15.11,0,0,0,2.1,1.43,6,6,0,0,0,1.76.26c0-.61.2-1.36-.09-1.8-1-1.58-2.22-3-3.33-4.56-.46-.63-.87-1.32-1.57-2.39a8.09,8.09,0,0,1,4.85,3,31.29,31.29,0,0,1,3.34,5c2.59,4.57,1.61,8.78-1.4,12.81a19.15,19.15,0,0,1-10.5,6.77c-6.08,1.72-10.77,5.36-15.09,9.67s-8.51,8.28-12.54,12.62c-4.4,4.74-8.54,9.71-12.79,14.57-.26.3-.53.59-.8.88Z"/><path class="cls-4" d="M259.36,154.14l-3.86-2.28c-1.06,4.82-2.23,9.41-3.05,14.07a142,142,0,0,0-2.08,32.47,164,164,0,0,0,2.54,20.22,143.83,143.83,0,0,1,1.9,26.85c0,4.46,0,8.93-.17,13.4a12.52,12.52,0,0,1-.9,3.1l-.84-.11c-.23-2.34-.62-4.67-.65-7-.06-6.54.33-13.11-.05-19.64-.36-6.06-1.5-12.08-2.27-18.12-.65-5.06-1.41-10.11-1.86-15.18a91.7,91.7,0,0,1-.37-11.83c.25-6,.62-12.08,1.38-18.06a162.35,162.35,0,0,1,3.2-17.4c.7-3,1.29-5.16-2.14-6.79-1.58-.75-2.73-2.47-4-3.84s-1.51-3.32-.1-4.57a79.1,79.1,0,0,1,7.26-5.46c.3-.21,1.18.07,1.56.39a3.9,3.9,0,0,1,1.32,1.82c.9,3.88,1.74,7.77,2.48,11.69.35,1.88.43,3.82.69,6.29"/><path class="cls-4" d="M245.21,163.91a59.24,59.24,0,0,1,.46,6.09c-.13,5.4-.4,10.81-.65,16.21a110.06,110.06,0,0,0,2.1,27.57,134.55,134.55,0,0,1,3.17,27.8c0,4.71-.28,9.43-.46,14.14a5.16,5.16,0,0,1-.34,1.25H249c-.48-3.52-1-7-1.5-11a36.09,36.09,0,0,1-2.13,3.2,5.17,5.17,0,0,1-1.62.84c-.23-.54-.74-1.13-.65-1.61.59-3.1,1.34-6.16,2-9.25.27-1.34.39-2.7.61-4.3-.76.29-1.13.46-1.5.57-2,.58-3,0-3.21-2a52.86,52.86,0,0,1-.24-9.15,75.15,75.15,0,0,0-1-22.1,17.8,17.8,0,0,1,.37-8,135.52,135.52,0,0,0,2.52-13.42c.78-5.45,1.28-10.94,1.91-16.41,0-.07.17-.12.67-.45"/><path class="cls-3" d="M170,124.31c1.66,1,3.15,1.85,4.67,2.76l8.53-11.73-1.71-1.43L170,124.31m17.81-10.58c-1.08,1.65-2.15,3.3-3.24,4.94q-6,8.94-12,17.86A5.24,5.24,0,0,1,171.3,138a1.64,1.64,0,0,1-1.39.24c-3.57-2.3-5-4.63-4-9.25s3.63-8.58,6.82-12.08c1.94-2.14,4.22-3.89,7.16-4.12a73.83,73.83,0,0,1,7.58.17Z"/><path class="cls-4" d="M230.48,165.51a21,21,0,0,1-3.09-1.71c-2.77-2.24-5.51-4.53-8.17-6.9a3.39,3.39,0,0,1,.19-5.27,43.6,43.6,0,0,1,5.93-4c1.21-.72,2.47,0,3,1.69,1.68,5.1,2,10.38,2.09,16.18"/><path class="cls-4" d="M242.4,137.74q.47,3.31.82,5.83l2.58,1.33c0,.18-.07.37-.11.56l-2.27.68c.37,3,.78,5.94,1.09,9a8.44,8.44,0,0,1-.34,2.13c-.59-.14-1.41-.06-1.75-.43-2.9-3.19-5.73-6.45-8.56-9.71a1.59,1.59,0,0,1,.31-2.46c2.63-2.23,5.29-4.43,8.23-6.88"/><path class="cls-4" d="M218.48,176.34c-1.39-.61-2.82-1.15-4.17-1.85-2.27-1.17-4.53-2.38-6.71-3.71a2.34,2.34,0,0,1-.67-3.66,35.72,35.72,0,0,1,4.49-4.87c.82-.73,1.89-.17,2.34.78q2.18,4.65,4.16,9.39a25,25,0,0,1,.94,3.47l-.38.45"/><path class="cls-4" d="M254.17,299.88c.35,4.76-2,4.69-5.28,4.37a23.8,23.8,0,0,1-4.31-1.28c-1-.3-1.22-.94-.54-1.68,2.33-2.55,3.4-5.69,4.41-8.89.22-.72,1-1.78,1.5-1.78A3.06,3.06,0,0,1,252,292a14.41,14.41,0,0,1,2.13,7.86"/><path class="cls-4" d="M209.1,288.67a36.82,36.82,0,0,0,4.26-2.94c1.45-1.34,2.59-3,4-4.41a12.75,12.75,0,0,1,2.38-1.49c.47.81,1.28,1.6,1.35,2.45a17.1,17.1,0,0,1-1.67,9.55,2.78,2.78,0,0,1-3.53,1.51,16,16,0,0,1-6.78-4.67"/><path class="cls-4" d="M203.41,282.48c-.94,3-2.63,3.5-5.77,2.11a21.78,21.78,0,0,1-4.08-3c-.89-.68-.8-1.46.15-1.95a22.22,22.22,0,0,0,7.39-6.85,2.55,2.55,0,0,1,2-.95c.56.14,1.08,1.11,1.3,1.82s-.41,6.8-1,8.79"/><path class="cls-4" d="M185.1,259c.7.42,1.7.68,2.05,1.31,1.16,2,2.71,4.09,2.93,6.26.27,2.59,1.68,4,3.26,5.54a5,5,0,0,1,1.27,1.8c.11.34-.46,1.3-.71,1.29-3.64-.06-5,1.9-4.59,5.26-1.21.48-1.73.24-2-1-.49-2.59-1.15-5.14-1.69-7.72a2.92,2.92,0,0,1,.07-1.74c1.38-2.75.56-5.4-.25-8.06-.26-.87-.5-1.76-.75-2.64l.37-.33"/><path class="cls-4" d="M239,293.67c-.32,5.15-2.11,6.45-6.92,4.87s-4.62-1.46-1.67-5.41c1.41-1.9,2.25-4.22,3.44-6.29.34-.59,1-1.42,1.51-1.37a2.38,2.38,0,0,1,1.72,1.34c.77,2.24,1.3,4.57,1.92,6.86"/><path class="cls-4" d="M267.39,285.94c-.31,3.2-1.53,3.19-4.42,2.68a20.2,20.2,0,0,1-3.73-1.47c-1.05-.42-1.28-1-.41-1.82,2.61-2.41,4-5.59,5.45-8.71a5.65,5.65,0,0,1,.92-1.12c.37.32,1,.59,1.09,1a60.42,60.42,0,0,1,1.1,9.45"/><path class="cls-4" d="M267.17,298.1c1.85-3.54,5.55-11.06,5.64-11,2.86,2.83,2.64,6.47,2.68,10.05,0,1.53-.74,2.44-2.23,2.23-2.08-.3-4.12-.87-6.09-1.31"/><path class="cls-4" d="M258.28,269c-.54,2.19-1.88,2.91-3.95,2a26.7,26.7,0,0,1-4.46-2.69,1.56,1.56,0,0,1,0-1.47,25.25,25.25,0,0,0,6.91-7.43c.3-.45,1-.65,1.47-1a6.11,6.11,0,0,1,.73,1.47,46.52,46.52,0,0,1-.73,9.06"/><path class="cls-4" d="M259.43,306.81c.37-1.17.6-1.81.78-2.47.69-2.64,1.36-5.29,2.06-7.94a13.5,13.5,0,0,1,.55-1.37c.45.21,1.06.31,1.34.67a14.82,14.82,0,0,1,3.5,8.47c.1,1.8-.51,2.52-2.31,2.62s-3.71,0-5.92,0"/><path class="cls-4" d="M201.4,176.06l4.44,12.56-.47.44a21,21,0,0,1-2.2-1c-2-1.22-4.1-2.44-6-3.8a1.89,1.89,0,0,1-.54-1.76c1.3-2.18,2.77-4.26,4.19-6.38l.63,0"/><path class="cls-4" d="M196,196.37a13.71,13.71,0,0,1-7.09-3.11,1.79,1.79,0,0,1-.22-1.73,11,11,0,0,1,2.44-2.74,1.92,1.92,0,0,1,1.79.23c1.08,2.29,2,4.66,3.08,7.35"/><path class="cls-4" d="M261.76,278.57c-1.46-1.83-2.86-3.41-4-5.15-.25-.38.42-1.35.68-2.05.5.24,1.15.34,1.49.72.86,1,1.52,2.09,2.35,3.08s.67,2.07-.52,3.4"/><path class="cls-4" d="M270.65,289.77c-1-1.16-2-2.17-2.88-3.28-.17-.23.31-.85.49-1.3a3.45,3.45,0,0,1,1.08.46c.61.62,1.09,1.33,1.69,2s.48,1.32-.38,2.16"/></g></g></svg>