<svg width="75" height="75" viewBox="0 0 75 75" fill="none" xmlns="http://www.w3.org/2000/svg">
<path d="M37.5 26.9531C31.684 26.9531 26.9531 31.684 26.9531 37.5C26.9531 43.316 31.684 48.0469 37.5 48.0469C43.316 48.0469 48.0469 43.316 48.0469 37.5C48.0469 31.684 43.316 26.9531 37.5 26.9531ZM37.5 45.7031C32.9777 45.7031 29.2969 42.0223 29.2969 37.5C29.2969 32.9777 32.9777 29.2969 37.5 29.2969C42.0223 29.2969 45.7031 32.9777 45.7031 37.5C45.7031 42.0223 42.0223 45.7031 37.5 45.7031Z" fill="url(#paint0_linear_115_135)"/>
<path d="M25.9488 27.566C26.7434 26.6461 26.673 25.2492 25.793 24.3879L21.6023 20.2816C21.1441 19.8316 20.5031 19.5656 19.8691 19.6102C19.2293 19.6324 18.6457 19.9043 18.2238 20.3801C14.0285 25.1004 11.7187 31.1812 11.7187 37.5012C11.7187 44.0391 14.1703 50.2758 18.6398 55.0746L14.5418 59.2793C8.94258 53.3801 5.85937 45.6551 5.85937 37.5164C5.85937 28.9441 9.23203 20.932 15.3562 14.9309L13.7156 13.2891C7.13789 19.7344 3.51562 28.418 3.51562 37.6254C3.51562 46.3676 6.82734 54.798 12.8414 61.1367C13.2785 61.5973 13.8703 62.1094 14.5078 62.1094C14.5137 62.1094 14.5195 62.1094 14.5254 62.1094C15.157 62.1094 15.7711 61.5984 16.2117 61.1496L20.3133 56.7129C21.191 55.8176 21.2004 54.3902 20.3379 53.4633C16.2902 49.1121 14.0625 43.4426 14.0625 37.5C14.0625 31.7543 16.1625 26.2266 19.9617 21.9563L24.1734 26.0355C21.4312 29.2207 19.9219 33.2918 19.9219 37.5C19.9219 42.1266 21.7043 46.4941 24.9398 49.7988L26.6156 48.1582C23.8102 45.2941 22.2656 41.5102 22.2656 37.5C22.2656 33.8531 23.5734 30.3246 25.9488 27.566Z" fill="url(#paint1_linear_115_135)"/>
<path d="M62.6284 14.6203C62.2019 14.1527 61.6159 13.8844 60.9784 13.8656C60.3269 13.8562 59.7151 14.093 59.2605 14.5383L55.0733 18.6387C54.1769 19.5152 54.137 20.9438 54.9831 21.8895C58.8222 26.1879 60.9374 31.7309 60.9374 37.5C60.9374 43.2621 58.8269 48.8027 55.0042 53.0777L50.6366 49.1789C53.5007 45.9609 55.078 41.8137 55.078 37.5C55.078 32.7387 53.2042 28.2785 49.8022 24.9445L48.1616 26.618C51.1101 29.509 52.7343 33.3738 52.7343 37.5C52.7343 41.2371 51.3679 44.8324 48.887 47.6203C48.0456 48.566 48.1347 50.0344 49.0886 50.8934L53.4339 54.818C53.8968 55.234 54.498 55.4566 55.1425 55.4238C55.7624 55.391 56.3319 55.1191 56.7433 54.6598C60.9597 49.9313 63.2812 43.8387 63.2812 37.5C63.2812 31.1543 60.955 25.0559 56.7128 20.3145L60.8964 16.1988C66.2132 22.0348 69.1405 29.5992 69.1405 37.5C69.1405 46.0723 65.7679 54.0996 59.6437 60.1008L61.2843 61.7742C67.862 55.3289 71.4843 46.7074 71.4843 37.5C71.4843 29.0145 68.339 20.8875 62.6284 14.6203Z" fill="url(#paint2_linear_115_135)"/>
<path d="M37.5 31.6406C35.946 31.6406 34.4556 32.258 33.3568 33.3568C32.258 34.4556 31.6406 35.946 31.6406 37.5C31.6406 39.054 32.258 40.5444 33.3568 41.6432C34.4556 42.7421 35.946 43.3594 37.5 43.3594C39.054 43.3594 40.5444 42.7421 41.6432 41.6432C42.7421 40.5444 43.3594 39.054 43.3594 37.5C43.3594 35.946 42.7421 34.4556 41.6432 33.3568C40.5444 32.258 39.054 31.6406 37.5 31.6406Z" fill="url(#paint3_linear_115_135)"/>
<defs>
<linearGradient id="paint0_linear_115_135" x1="37.4999" y1="26.3468" x2="37.4999" y2="46.2424" gradientUnits="userSpaceOnUse">
<stop stop-color="#1AFF4C"/>
<stop offset="1" stop-color="#22FFCA"/>
</linearGradient>
<linearGradient id="paint1_linear_115_135" x1="15.0656" y1="11.8858" x2="15.0656" y2="57.9329" gradientUnits="userSpaceOnUse">
<stop stop-color="#1AFF4C"/>
<stop offset="1" stop-color="#22FFCA"/>
</linearGradient>
<linearGradient id="paint2_linear_115_135" x1="59.8229" y1="12.4882" x2="59.8229" y2="57.6757" gradientUnits="userSpaceOnUse">
<stop stop-color="#1AFF4C"/>
<stop offset="1" stop-color="#22FFCA"/>
</linearGradient>
<linearGradient id="paint3_linear_115_135" x1="37.5003" y1="27.6587" x2="37.5003" y2="53.3282" gradientUnits="userSpaceOnUse">
<stop stop-color="#00D1FF"/>
<stop offset="1" stop-color="#0038FF"/>
</linearGradient>
</defs>
</svg>
