<svg width="76" height="75" viewBox="0 0 76 75" fill="none" xmlns="http://www.w3.org/2000/svg">
<path d="M38 67.9688C21.2 67.9688 7.53125 54.3012 7.53125 37.5C7.53125 20.6988 21.2 7.03125 38 7.03125C54.8 7.03125 68.4688 20.6988 68.4688 37.5C68.4688 54.3012 54.8 67.9688 38 67.9688ZM38 9.375C22.4926 9.375 9.875 21.9926 9.875 37.5C9.875 53.0074 22.4926 65.625 38 65.625C53.5074 65.625 66.125 53.0074 66.125 37.5C66.125 21.9926 53.5074 9.375 38 9.375Z" fill="url(#paint0_linear_115_125)"/>
<path d="M38 18.75C33.0272 18.75 28.2581 20.7254 24.7417 24.2417C21.2254 27.7581 19.25 32.5272 19.25 37.5C19.25 42.4728 21.2254 47.2419 24.7417 50.7583C28.2581 54.2746 33.0272 56.25 38 56.25C42.9728 56.25 47.7419 54.2746 51.2583 50.7583C54.7746 47.2419 56.75 42.4728 56.75 37.5C56.75 32.5272 54.7746 27.7581 51.2583 24.2417C47.7419 20.7254 42.9728 18.75 38 18.75Z" fill="url(#paint1_linear_115_125)"/>
<defs>
<linearGradient id="paint0_linear_115_125" x1="37.9999" y1="5.27964" x2="37.9999" y2="62.7557" gradientUnits="userSpaceOnUse">
<stop stop-color="#1AFF4C"/>
<stop offset="1" stop-color="#22FFCA"/>
</linearGradient>
<linearGradient id="paint1_linear_115_125" x1="38.0009" y1="6.00785" x2="38.0009" y2="88.1503" gradientUnits="userSpaceOnUse">
<stop stop-color="#00D1FF"/>
<stop offset="1" stop-color="#0038FF"/>
</linearGradient>
</defs>
</svg>
